# File produced by Open Asset Import Library (http://www.assimp.sf.net)
# (assimp v5.3.0)

mtllib finger.mtl

# 318 vertex positions
v 0.00235420396 0.0475357696 -0.00942009594
v -2.00269005e-06 0.0449937508 -0.0128052197
v 0.00336742401 0.0457962118 -0.00942015555
v 0.00120961596 0.0482046604 -0.00942182541
v -0.000900073966 0.0483672582 -0.0094234338
v -0.00256878091 0.0472955704 -0.00941419601
v -0.00346106198 0.0454550907 -0.0094259968
v -0.0104053598 0.00396412611 -0.0183872506
v 0.0103027802 0.00399994804 -0.0196752492
v -0.01030677 0.00399994804 -0.0197040997
v 0.0104016 0.00399756385 -0.0182121899
v -0.0103283497 0.0063115349 -0.0174108706
v 0.0102062803 0.00510972692 -0.0174418595
v -0.01040232 0.00476950407 -0.0174140297
v 0.0103377104 0.00634837104 -0.0174105093
v -0.0103496304 0.00179994095 -0.00256317807
v -0.0104643097 0.00174116995 -0.00807201769
v -0.0103662601 0.000133331996 -0.00252431608
v -0.0103380596 0.00383841898 -0.00802856591
v -0.0104976799 0.00380843808 -0.0106680896
v -0.0103790704 0.0188520495 -0.0127922203
v -0.0105009004 0.0177143794 -0.0170356594
v -0.0103749596 0.0177727304 -0.01157689
v -0.0104031498 0.00479894783 -0.0114449803
v -0.0103331804 0.0188274905 -0.0162147805
v -0.0104643097 0.00174116995 -0.0207543299
v -0.0102562299 0.00392025709 -0.0207977798
v -0.0103905201 0.000163632998 -0.0263041202
v -0.0103496304 0.00179994095 -0.0262631699
v 0.0102126002 0.00401753094 -0.0102814399
v 0.00678396178 0.0039221039 -0.00787025597
v 0.0103387795 0.00383841898 -0.00802856591
v -0.0102099702 0.00401508808 -0.0102578904
v -0.00668823719 0.00391292479 -0.0078257909
v -0.00503319502 0.0038749571 -0.00596505404
v -0.00487458706 0.0038749571 -0.00258821202
v 0.0048823948 0.0039981599 -0.00631439593
v 0.00487536099 0.00382494903 -0.00253820396
v 0.01035034 0.00179994095 -0.00256317807
v 0.0048618908 0.00176149595 -0.00248241401
v 0.0103783002 0.000152541994 -0.00253522303
v -0.00486111594 0.00176149595 -0.00248241401
v 0.0103892004 0.000133333 -0.0262798592
v 0.00490075303 0.00176060095 -0.0263454895
v 0.01035034 0.00179999997 -0.0262631699
v -0.00483804895 0.00383841898 -0.0262978002
v 0.00483882381 0.00388461305 -0.02625167
v -0.00491309119 0.00177884102 -0.0263150893
v -0.00474035693 0.00399154378 -0.0230867192
v 0.00473672105 0.00398993399 -0.0231127106
v 0.0104090497 0.0177185498 -0.0116169397
v 0.01039779 0.00475180103 -0.0114065995
v 0.01032787 0.0188734494 -0.01605618
v 0.01038271 0.0187998991 -0.01261192
v 0.0102685001 0.00393175986 -0.0207631495
v 0.0104585197 0.00174504495 -0.02080255
v 0.0104650203 0.00174116995 -0.00807201769
v 0.0104981 0.00379907992 -0.0106536699
v 0.0105015598 0.0177144408 -0.0170357209
v 0.0104986401 0.00473028421 -0.0172322895
v 0.00707286503 0.00189995696 -0.0210059192
v 0.00520652486 0.00189995696 -0.0225414
v 0.00503069116 0.00370061304 -0.0233486202
v 0.0055564642 0.00370019604 -0.02213406
v 0.00697416021 0.00369894505 -0.0210205298
v 0.00515145017 0.00189995696 -0.00613880111
v 0.00699281599 0.00189995696 -0.00781291723
v 0.00512129022 0.00369393802 -0.00596207287
v -0.00710451603 0.00189995696 -0.0209913794
v -0.00520581007 0.00189995696 -0.0225414
v -0.00696331216 0.00368881202 -0.0210297704
v -0.00555568887 0.00370019604 -0.02213406
v -0.00503146602 0.00370299793 -0.0233402196
v -0.00505119516 0.00189995696 -0.00564485695
v -0.00715523912 0.00189995696 -0.00784361269
v -0.00577795506 0.00189995696 -0.00696319295
v 0.0101981703 0.0177704003 -0.0173339806
v -0.0101935798 0.0176808797 -0.0173503105
v -0.00656622602 0.00399744511 -0.0208187103
v 0.00660258485 0.00399714708 -0.0207953397
v -0.0102930004 0.00400900794 -0.0231655799
v -0.0088022938 0.0359255001 -0.0156517606
v 0.00880372524 0.035909351 -0.0156677905
v -0.0103888502 0.0191876199 -0.0252202693
v 0.0104004703 0.0190365892 -0.0252534095
v 0.00874662306 0.0360043012 -0.0144116199
v -0.00874871016 0.0360045992 -0.0144120399
v -0.00533032417 0.0538100004 -0.0143017098
v -0.00865679886 0.0498322807 -0.0144132897
v -0.00780171109 0.0522912107 -0.0142384702
v 0.00480043795 0.0538315699 -0.01433104
v 0.00853770878 0.050533589 -0.0144140096
v 0.00654661609 0.0532461405 -0.0142905097
v 0.0055322051 0.0538575612 -0.00971704721
v -0.00546771195 0.0537472293 -0.00949096587
v -0.00877934601 0.0501179583 -0.00946134329
v -0.00708413078 0.0528213903 -0.0095042577
v 0.00549107697 0.0535576902 -0.00941228773
v -0.00874519255 0.03600448 -0.00941395666
v -0.00306206895 0.0434908792 -0.00942635536
v -0.00195377995 0.0421556793 -0.00941777229
v 0.00773781491 0.0522450805 -0.00953346398
v 0.00880241301 0.0502025411 -0.00950848963
v 0.000144478996 0.0415105186 -0.00943315029
v 0.00316786696 0.0437722206 -0.00942504406
v 0.00874894764 0.0360047184 -0.00941377785
v 0.00194334902 0.0421935283 -0.00942236092
v 0.00900977757 0.0358449817 -0.00812458899
v -0.00901520159 0.0357420407 -0.00804358721
v -0.0101925097 0.0192508101 -0.0173994806
v 0.00896245241 0.0355792604 -0.00802069902
v 0.0101882797 0.0192534309 -0.0173925105
v -0.0103617897 0.00614440395 -0.0253046695
v 0.0103817498 0.00611853506 -0.02526181
v 0.0102937203 0.00400900794 -0.0231655799
v 0.0104797399 0.0193241797 -0.0176779609
v -0.0104790898 0.01932358 -0.0176780205
v -0.00905543473 0.0357080102 -0.0154680004
v -0.00905549526 0.0357282087 -0.0141045405
v -0.00904929638 0.0357345901 -0.00971162319
v -0.00894540455 0.0499603115 -0.0141099598
v 0.00897312071 0.0496811196 -0.0141132995
v 0.00904995203 0.0357357785 -0.00971585512
v 0.00905627012 0.0357270204 -0.0141087696
v 0.00905614998 0.0357080102 -0.0154680004
v -0.00839465763 0.0514611006 -0.00971269608
v 0.00819712784 0.0518529415 -0.0141149098
v -0.00982320309 0.0111079803 -0.0175021198
v -0.0089700222 0.00949793961 -0.0175354406
v -0.00982862711 0.01161444 -0.0204132106
v -0.00838220119 0.0089780679 -0.0204131603
v -0.00524490979 0.0157164298 -0.0204131603
v -0.00541889621 0.0157521293 -0.0177191403
v -0.00698703481 0.0156416204 -0.0204131603
v -0.00758099509 0.0154585196 -0.0177130103
v -0.00790250301 0.00874233246 -0.01771277
v -0.00893688202 0.0144862495 -0.0204132106
v -0.00616574194 0.00820678379 -0.0177192595
v -0.0059996238 0.008207798 -0.0204131603
v -0.00901007559 0.0142740598 -0.0177126508
v -0.00971245673 0.0127433501 -0.0177175906
v -0.00816380884 0.0154888602 -0.0174136106
v -0.00980520155 0.0135763204 -0.0174138509
v -0.002160131 0.0117901498 -0.0177142601
v -0.00191706396 0.01287972 -0.0174154006
v -0.00276118494 0.0139358602 -0.0177128892
v -0.00345307495 0.0151981702 -0.0174133703
v -0.00375634409 0.0150334798 -0.0177131202
v -0.00565910293 0.0161122605 -0.0174139105
v -0.00744163897 0.00815576315 -0.0174135491
v -0.00479966402 0.00804436207 -0.01741427
v -0.00253355503 0.00976121426 -0.0174140297
v -0.00424080994 0.00864684489 -0.0177081209
v -0.002989172 0.00972586777 -0.0177126508
v -0.00306236697 0.0144862495 -0.0204131603
v -0.00361704803 0.0089780679 -0.0204131603
v -0.00217056205 0.01161444 -0.0204132106
v 0.00217133691 0.01161444 -0.0204132106
v 0.00247198297 0.0102740498 -0.0175376497
v 0.00361776305 0.0089780679 -0.0204131603
v 0.00675505307 0.0157164298 -0.0204131603
v 0.00658100797 0.0157521293 -0.0177191403
v 0.00501292897 0.0156416204 -0.0204131603
v 0.00441890908 0.0154585196 -0.0177130103
v 0.00409746077 0.00874233246 -0.01771277
v 0.003063082 0.0144862495 -0.0204131603
v 0.00583422091 0.00820678379 -0.0177192595
v 0.00600033905 0.008207798 -0.0204131603
v 0.00298988796 0.0142740598 -0.0177126508
v 0.00215810491 0.0124818599 -0.0176027399
v 0.00277876807 0.0146438396 -0.0174147394
v 0.0099671483 0.0108637204 -0.0174139105
v 0.00984442234 0.0134419696 -0.0174136106
v 0.00983983185 0.0117901498 -0.0177142601
v 0.00923871901 0.0139358602 -0.0177128892
v 0.0083630681 0.01505017 -0.0175936799
v 0.00593393994 0.0161760394 -0.0174150392
v 0.00849610474 0.00874000695 -0.0174136702
v 0.00416731788 0.00827723742 -0.0174148604
v 0.00659871101 0.00796615984 -0.0174132492
v 0.00775915291 0.00864684489 -0.0177081209
v 0.00901079085 0.00972586777 -0.0177126508
v 0.00893759727 0.0144862495 -0.0204131603
v 0.00838291645 0.0089780679 -0.0204131603
v 0.00982934237 0.01161444 -0.0204132106
v -0.000860487984 0.0435649715 -0.00191301096
v -0.00174039602 0.0444136187 -0.00938856602
v -0.00152557995 0.045917511 -0.001912534
v -0.00129699695 0.0462116003 -0.00939077139
v 0.000156457987 0.0467658602 -0.0093883872
v 0.000861215929 0.0464349911 -0.00191313005
v -0.000155724993 0.0432340503 -0.0093883872
v -0.00208645989 0.0452687107 -0.00943106413
v -0.00215315796 0.0454204008 -0.0108865397
v -0.00146478403 0.0465517007 -0.00942921638
v -0.00107014098 0.0469809696 -0.0108835604
v 0.000721602002 0.0429896712 -0.00943356659
v -0.000723477977 0.0428775512 -0.0108947698
v -0.000697704963 0.04301643 -0.00943159964
v -1.12073994e-05 0.0471171103 -0.00943017006
v -0.00181931199 0.0438790284 -0.00943756104
v -0.001967191 0.0440769084 -0.0108896997
v -0.00288659311 0.043994721 -0.00943517592
v -0.00297522498 0.0457030497 -0.00943678617
v -0.00300937798 0.0452787206 -0.01089417
v -0.00245523406 0.0432685614 -0.0108962003
v -0.00179171504 0.0475511514 -0.00943350699
v 0.000359714992 0.0479683205 -0.0108996602
v -0.00187092996 0.0474112593 -0.0109066898
v 0.000520979986 0.048030369 -0.00943428185
v -0.00178468204 0.0424964987 -0.00943410303
v -0.000970154942 0.0421676598 -0.0108850002
v 1.48398994e-05 0.0419424698 -0.00943773892
v 0.00102555705 0.042149961 -0.0108947698
v 0.00226306892 0.0472626612 8.37642947e-05
v 0.00484311488 0.0537171885 1.70612002e-05
v 0.00226897001 0.0537461601 3.64763982e-05
v 0.00707507087 0.05276924 1.88820995e-05
v 0.00867491867 0.0503185317 6.99963994e-06
v 0.0087569952 0.0472717807 2.97773004e-05
v 0.00876259804 0.0362658501 -1.08414997e-05
v 0.00875890162 0.0427279398 2.87572002e-05
v 0.0022482269 0.0427520797 7.64219003e-05
v 0.00227022101 0.0362487994 3.4383098e-05
v -0.00226229406 0.0472626612 8.37642947e-05
v -0.00226825406 0.0537461601 3.64760999e-05
v -0.00569194509 0.0536039397 -1.10340998e-05
v -0.00781816244 0.0519177914 3.97310978e-05
v -0.00870937109 0.0499394499 1.03085004e-05
v -0.00875771046 0.0472718999 2.89759992e-05
v -0.00227373792 0.0362495705 3.68374021e-05
v -0.00224399497 0.0427556001 7.46945007e-05
v -0.00875878334 0.0427238904 3.04484001e-05
v -0.00877195504 0.0362644084 -2.75425991e-05
v 0.00880932808 0.0449999496 -0.00156462099
v 0.00878596306 0.0505711995 -0.00934815407
v 0.00893133786 0.0360903703 -0.00931364205
v -0.00880402327 0.0449999496 -0.00155889895
v -0.00889307167 0.0498996302 -0.00934207439
v -0.00893068314 0.0360903703 -0.00931441691
v 3.65234001e-07 0.0538040288 -0.00155889895
v 3.65210013e-07 0.0449999496 -0.001488626
v 3.65614e-07 0.0361964107 -0.00156116404
v 0.00473004486 0.0538998805 -0.00935137179
v -0.00533980085 0.0538194701 -0.00935518742
v -0.00270712306 0.0419390202 -0.00938367844
v -0.00394457486 0.0442537591 -0.00940042734
v 0.00749272108 0.0442506 -0.00939500332
v 0.00749748899 0.04575371 -0.00939482357
v 0.00218564202 0.0483753011 -0.00939083006
v 0.00254624989 0.0467984602 -0.00943660736
v -0.0072584739 0.0506891608 -0.00938779116
v -0.00786077883 0.0521914288 -0.00935530569
v 0.00749838306 0.0375068709 -0.0093938699
v 0.000754131994 0.0375025794 -0.00939506199
v -0.00497215893 0.0524379015 -0.00939273834
v -0.000755758956 0.0375016294 -0.00939440727
v -0.0074924822 0.0375017487 -0.0093938699
v -0.00749653485 0.0442468487 -0.00939482357
v 0.00344526698 0.0470567904 -0.00938671827
v 0.00686865998 0.0531028509 -0.00935214665
v 0.00736528588 0.0503267609 -0.00939369202
v 0.00534445001 0.0523556992 -0.0093858242
v -0.00749182701 0.0457493588 -0.00939482357
v -0.000753553992 0.0524972603 -0.0093947053
v 0.00392353488 0.0457335711 -0.00938993599
v -0.000730475003 0.0410801098 -0.00939190295
v 0.00303840591 0.0446528085 -0.00943362713
v 0.000749808969 0.0524923801 -0.00939506199
v 0.00392335607 0.0442665815 -0.00939035416
v 0.00073400198 0.0410767682 -0.00938993599
v 0.0020776391 0.0426754914 -0.00943434238
v 0.00205707503 0.04155498 -0.00938671827
v 0.00337564899 0.0428146683 -0.00939083006
v -0.000733049004 0.0489230081 -0.00939035416
v -0.00392264081 0.0457333885 -0.00939035416
v -0.00205636001 0.0484449193 -0.00938671827
v -0.00337487389 0.0471853018 -0.00939083006
v 0.00073400198 0.0489231907 -0.00938993599
v 0.00733321905 0.0376727507 -0.00144219305
v 0.00733107282 0.0440803096 -0.00144165696
v 0.00411546184 0.0440410301 -0.00143360998
v 0.000913617027 0.0409246013 -0.00144046498
v 0.00267535402 0.0417134091 -0.00142788806
v 0.000916392019 0.0376725718 -0.00144249201
v -0.00733286096 0.0376718603 -0.00144308805
v -0.000916098012 0.0376727507 -0.00144219305
v -0.000909494003 0.0409266911 -0.00144207396
v -0.00304520107 0.0419565402 -0.00141972303
v -0.00407320214 0.04408985 -0.00144213403
v -0.00733196689 0.0440797806 -0.00144272996
v -0.00714051677 0.0504422709 -0.00143116701
v -0.00509041501 0.0522284508 -0.00143229903
v -0.00733220484 0.0459198318 -0.00144350505
v -0.00411480619 0.0459590517 -0.00143343199
v -0.000913102995 0.0490754806 -0.00144010701
v -0.00267529394 0.0482869111 -0.00142651703
v -0.000916343939 0.0523282215 -0.00144302798
v 0.00660824683 0.05116909 -0.00141262996
v 0.00730997277 0.0495814011 -0.00143551803
v 0.00492483284 0.0522634909 -0.00143730605
v 0.000915561919 0.0523269698 -0.00144356396
v 0.000959385943 0.0491151214 -0.00143349101
v 0.00407588389 0.0459134504 -0.00144010701
v 0.0032873149 0.0476756617 -0.00142651703
v 0.00733232405 0.0459200703 -0.00144284905
v 0.000984774902 0.0430663191 -0.01088815
v 0.00199961592 0.0440859683 -0.0108969202
v 0.0023457401 0.0431791507 -0.0108867204
v 0.00299924589 0.0446447693 -0.0108972099
v 0.000826939009 0.0470191799 -0.0108914897
v 0.00205129292 0.0458244011 -0.0108696204
v 0.00233876705 0.04695528 -0.0108850002
v 0.00215488602 0.0445641801 -0.00941842701
v 0.00144845201 0.0465676114 -0.00942921638
v 0.00174111105 0.0455863401 -0.00938856602
v 0.00152629602 0.0440823995 -0.00191247405
v 0.00129771198 0.0437883101 -0.00939077139

# 0 UV coordinates

# 618 vertex normals
vn -0.617320776 -0.359599113 0.699716806
vn -0.357614309 -0.610080302 0.707045972
vn -0.0555746518 -0.714219213 0.697712302
vn 0.388415396 -0.598760724 0.700442076
vn 0.641279817 -0.315390199 0.699492216
vn -3.80453021e-05 0.999629498 0.0272205397
vn -0.00162374903 0.999997199 0.00173664
vn -0.00138562894 0.00213181903 -0.999996781
vn -2.94081983e-05 0.0252929293 -0.999680102
vn -0.999730706 0.0104799187 0.0207035486
vn -0.996491909 0.0587481111 0.0596028417
vn -0.999500513 0.0218602996 0.0228253007
vn -0.999731779 0.00240951707 0.0230381396
vn -0.999971092 -0.00760954618 -0.000103593004
vn -0.987117887 0.159346193 -0.0143894497
vn -0.999774516 0.0177851897 -0.0116009703
vn -0.995521605 0.0945323557 -0.000606524933
vn -0.999869525 -0.0161553603 -0
vn -0.999200106 0.038394738 -0.0111781294
vn -0.993602753 0.0936102122 -0.0631712526
vn -0.998907804 -0.046726279 -0
vn -0.998338521 -0.0576136708 0.000944458006
vn -0.999463916 0.0254989807 -0.0205381494
vn 0.0269190595 0.996611416 0.0777246878
vn -7.57924936e-05 0.999221921 0.0394417606
vn -0.000539686996 0.999086201 0.0427387282
vn -0.0246504471 0.996683598 0.0775504038
vn -0.0124014597 0.999922991 0.000580473978
vn 0.00488775875 0.998937786 0.0458192155
vn -0.000845258008 0.998756588 -0.0498457514
vn -0.0113423998 0.999471128 0.0304782297
vn 0.0145917498 0.0172189996 0.999745309
vn 0 0.0270169303 0.999634981
vn -0.00486552715 0.0499516092 0.998739779
vn -0.0145457303 0.0234688502 0.999618828
vn 0.000554908998 -0.0308988597 0.999522388
vn 0 -0.0257132594 0.999669373
vn 0.0150246602 0.0103497496 -0.999833584
vn 0.00455361605 0.0442702696 -0.999009311
vn -0.0030794139 0.00851154327 -0.999959111
vn -0.00944876578 0.0252280198 -0.999637127
vn 0.00111252 -0.0365555212 -0.999330997
vn -0.00308853295 0.00365811493 -0.999988616
vn -0.00453740358 0.998861134 -0.0474979281
vn 8.04918964e-05 0.999437392 -0.033540301
vn 0.000926469977 -0.999999285 0.000809438992
vn -0.00145667687 -0.999998093 -0.00127273693
vn 0.00196850207 0.0162150804 0.999866605
vn -0.00182223297 0.0101686101 0.999946713
vn -0.00216782 0.999971807 -0.00719195604
vn 0.0023248787 0.999770284 0.0213081781
vn 0.994700193 0.0874078199 -0.054143481
vn 0.999151409 -0.0411856696 -0.000523698982
vn 0.998606384 -0.0527736433 0.000502085953
vn 0.999637187 0.0173196681 0.0206295773
vn 0.999531925 0.0235182606 -0.0195675995
vn 0.996492505 0.0587483533 0.0595934838
vn 0.999850094 -0.000488134945 0.0173071586
vn 0.999854088 -0.000590479933 0.0170712974
vn 0.999053478 0.0400292203 0.0170267802
vn 0.987302482 0.158372581 -0.0123267686
vn 0.992898107 0.117783301 0.0167490803
vn 0.993726194 -0.110747501 -0.0155979302
vn 0.999860227 -0.0167142097 -0.000516274013
vn 0.999179602 0.0387601778 -0.0117408577
vn 0.045158498 0.998937905 0.00915157609
vn 0.0103422897 0.999867499 -0.0125710303
vn -0.00667649508 0.999326706 -0.0360782109
vn 0.914123774 -0.0881339908 -0.395740002
vn 0.635072887 0.0286008697 -0.771922529
vn 0.616693974 0.0577816889 -0.785079479
vn 0.997445107 0.0319302604 -0.0639047623
vn 0.994791925 0.06031489 -0.0821650624
vn 0.0597535223 -0.00480085565 -0.998201609
vn 0.0761238933 0.0245482903 -0.996796191
vn -0.00645333482 0.999282181 0.0373303182
vn 0.0449662805 0.998941183 -0.00973039772
vn 0.0109493099 0.999867618 0.0120432898
vn 0.669968426 0.0900999308 0.736901879
vn 0.75597918 -0.0515587889 0.652562022
vn 0.0736710429 -0.0162183009 0.997150779
vn 0.0452334769 0.0330116078 0.998430908
vn 0.997409523 0.00975692179 0.0712680817
vn 0.9968822 -0.00437420607 0.078783147
vn -0.0465342402 0.998869717 0.00969702005
vn 0.0035850401 0.999487519 -0.0318100415
vn -0.010304979 0.999867201 -0.0126229478
vn -0.632047117 0.0332627818 -0.774215817
vn -0.616493821 0.0578532815 -0.785231471
vn -0.913505316 -0.0876660869 -0.397269011
vn -0.071365051 -0.0157852098 -0.99732542
vn -0.069734931 -0.0132240597 -0.997477889
vn -0.997300088 0.0368502103 -0.063519828
vn -0.994985878 0.0611492284 -0.0791448876
vn 0.00636285497 0.999039412 0.0433583818
vn 0 1 0
vn -0.01212346 0.999859273 0.0116012003
vn -0.0472725518 0.998835087 -0.00968122296
vn -0.872509003 0.0859507844 0.480978638
vn -0.746665776 -0.0535208508 0.663042784
vn -0.534915209 0.116691902 0.836808681
vn -0.998759627 0.0167283397 0.0468987189
vn -0.998201787 -0.00336295296 0.0598485991
vn -0.0680524111 -0.0165644791 0.997544229
vn -0.0555549785 0.00404256489 0.998447478
vn 0.000889069983 0.837393582 0.546599686
vn 0.000533058948 0.834519863 0.550977528
vn 0.00412380602 0.770399928 -0.637547672
vn -0.0104907099 0.568139315 -0.822865605
vn -0.00251823594 0.703502774 -0.710688114
vn 0.0033342829 0.756789207 -0.653650522
vn -0.00388860703 0.74769491 0.664031088
vn 0.00318306545 0.677147746 0.735840261
vn -0.0167326275 0.579001427 -0.815154791
vn -0.373636007 0.800839901 -0.468029499
vn -0.772458792 0.127238616 -0.622187972
vn -0.566874921 0.786668122 -0.244553193
vn -0.698262811 0.715725541 -0.0128853284
vn -0.959237516 0.275177598 -0.064348042
vn -0.714710116 0.0121932002 -0.699314594
vn -0.43880567 0.0229162518 -0.8982898
vn -0.572214365 0.540848851 -0.616484642
vn 0.70100069 0.71315968 -0.00113707699
vn 0.571668446 0.7823596 -0.247201577
vn 0.776010811 0.0841109678 -0.625086129
vn 0.365678608 0.806453705 -0.464662999
vn 0.0179019496 0.616565824 -0.787099779
vn -0.835204303 0.386535138 0.391183138
vn 0.870777607 0.488241911 -0.0580195114
vn -0.608932555 0.792734087 0.0278163459
vn 0.820658803 0.415697157 -0.392065346
vn 0.549874783 -0.0372338817 -0.834416807
vn 0.702211618 0.0133510204 -0.711843193
vn 0.782558918 0.0092472434 -0.62250793
vn 0.633941472 0.552417815 -0.541251183
vn 0.82525301 0.401106805 0.397581309
vn 0.629023314 0.77693361 0.0265296102
vn 0.768562376 0.639035881 0.0307441298
vn 0.389451355 0.811127603 0.436348349
vn -0.00314181997 -0.999995112 6.49825015e-05
vn 0.0206883475 -0.999072194 -0.0377719365
vn -0.000336066994 0.496320099 -0.868139505
vn 0.00220620609 0.494117707 -0.869392216
vn 0.000846411975 0.997157395 -0.0753426477
vn 1.67391972e-05 0.997970998 -0.0636697933
vn -0.0873243809 0.100825697 -0.991064429
vn -0.00296080089 0.0305114295 -0.999530077
vn -0.00102287496 0.0239955094 -0.999711573
vn 2.38455996e-05 -0.000164641999 -1
vn -4.06207982e-05 -8.76669001e-05 -1
vn 0.0507900715 0.082597971 -0.995287895
vn -0.00214201189 0.999983788 -0.00529146101
vn -0.0097643733 0.999870896 0.0127675496
vn -0.000290965982 0.0160563495 0.999871075
vn -0.0119500682 0.00653016428 0.999907255
vn -0.00163072301 0.0111668101 0.999936402
vn -0.00860804319 -0.00224334002 0.999960482
vn -0.00706809713 0.00655108597 0.999953628
vn -0.00370621611 0.00334721804 0.999987602
vn 0.00189977803 0.000212747997 0.999998212
vn -0.000844580994 -0.00111234095 0.999999106
vn -0.0017578 -0.000381975988 0.999998391
vn -0.00300139049 0.0039336076 0.999987781
vn 0.0407349393 -0.0225161891 0.998916328
vn 0.00712233596 0.0159320179 0.99984771
vn 0.00562506914 -0.00559145212 0.999968588
vn 0.0110715004 0.00638651801 0.999918401
vn -0.00471728947 -0.00193709077 0.999987006
vn 0.000170854997 0.00157487299 0.999998808
vn 0.0108723613 0.00663143396 0.999918997
vn -0.00461441185 -0.00368738105 0.999982595
vn -1.05397994e-05 0.00350791193 0.99999392
vn -1.60083e-05 0.992409229 0.122979902
vn -0.0047673583 0.982318521 0.187157214
vn -0.00557637261 -0.493135363 0.869934797
vn -0.000232576989 -0.497864693 0.867254674
vn -0.000939585967 0.0312852785 0.999510109
vn -0.00034668899 0.0394384786 0.999221981
vn 0.992744207 0.0113286888 0.119710483
vn -0.956363618 0.00978284981 0.292015404
vn -0.001544773 0.00646722317 -0.999977887
vn 0.00206863834 0.00064818305 -0.999997735
vn -0.0175331775 -0.999324203 -0.0323051177
vn 0.00343596935 -0.999994099 0.000346711022
vn 0.999982953 -0.00145488884 0.00564956572
vn 0.999887526 -0.0111499401 -0.0100354496
vn 0.999012113 -0.0443581901 -0.00270146108
vn 0.999762893 -0.0208703205 0.00621700194
vn -0.999988616 -0.00210607005 0.00428151991
vn -0.999861121 -0.0118272305 -0.0117478296
vn -0.999334574 -0.0362489782 -0.0040623541
vn -0.999894202 -0.0138270799 0.00452929689
vn -0.995996475 0.0883655995 -0.0135074779
vn -0.996291697 0.0858947709 0.00500142528
vn 0.156015784 -0.987753808 0.00121897389
vn -0.882519245 -0.470225245 0.0069377427
vn -0.999219894 0.0181425195 0.0350783393
vn -0.999969125 0.00773364305 0.00139600004
vn 0.999981225 0.00596094085 0.00143057096
vn 0.999243975 0.01659327 0.0351607203
vn 0.986196697 -0.161621496 0.0359809883
vn 0.926806688 -0.375503391 0.00516635086
vn 0.882860124 -0.469630986 0.00220745802
vn 0.995989978 0.0883982107 -0.0137745095
vn 0.996309876 0.0846797824 0.0139995804
vn -0.000992954941 -0.704295576 0.70990622
vn 0.00122594798 -0.694181025 0.719799519
vn -0.0043335557 -0.70476073 -0.709431946
vn -0.00202524592 -0.720117509 -0.693849206
vn 0.000566680974 -0.711224675 -0.702964604
vn 0.00781291723 -0.707567692 -0.706602395
vn -0.523661613 0.851917803 -0.00384038594
vn -0.496781409 0.867600322 -0.0218652394
vn -0.722223938 0.690914452 0.0320916064
vn -0.8979339 0.438554049 -0.0372166559
vn -0.959815383 0.279533714 0.0248066708
vn 0.941690505 0.33646521 -0.00319129205
vn 0.885446608 0.462127239 0.0492221043
vn 0.645062745 0.764129281 -0.000723493926
vn 0.588819325 0.807949185 0.0225822292
vn 0.318554193 0.946257889 -0.0558514483
vn 0.645474076 0.762930095 -0.0360693894
vn 0.702159226 -0.314094394 0.638997018
vn 0.709259152 0.00203221967 0.704944968
vn 0.401389986 0.625216424 0.669321001
vn 0.00728070689 0.712311208 0.701825976
vn -0.430713385 0.283691496 0.856741071
vn 0.698844075 0.0070946808 0.715238929
vn -0.699852824 0.000704011996 0.714286804
vn 0.914351881 -0.404906213 -0.00341534591
vn -0.669344425 0.742880225 0.0103551103
vn -0.70159018 -0.313070804 0.640123427
vn 0.741513371 0.383096814 -0.5508129
vn -0.696038604 0.00667595817 0.717973411
vn 0.672700584 0.739841521 -0.0104208495
vn 0.637330174 0.770035625 -0.0292491894
vn -0.872879207 -0.48791334 -0.00473958161
vn 0.579094172 0.00819170382 -0.815219522
vn 0.700999796 0.00394648314 -0.71315062
vn 0.871238172 0.311019659 -0.379750848
vn 0.340474457 0.290638566 -0.89420706
vn -0.636829674 0.272732288 -0.721155405
vn -0.710014045 0.00465696957 -0.704172134
vn -0.723272085 0.00532990601 -0.690542579
vn -0.73588872 0.387271702 -0.555417418
vn -0.675337434 0.737427652 -0.0109515106
vn -0.659633219 0.751336575 -0.0194257405
vn -0.715169311 0.0688322112 0.69555378
vn -0.56883359 0.442417711 0.693321705
vn 0.701334417 0.142343804 0.698475778
vn 0.547392726 0.458883792 0.699847817
vn 0.215397999 0.683886111 0.697067797
vn -0.25728339 0.666530371 0.699673116
vn 0.00210696389 0.363874406 0.931445718
vn 0.881493986 0.465482414 0.0793379471
vn 0.873012125 0.478981704 0.0917959809
vn 0.0429096147 -0.998950601 0.0160172489
vn 0.134382606 -0.990216494 -0.0375853702
vn 0.574084699 0.81822592 -0.0305486899
vn 0.509035647 -0.859067261 0.0537226126
vn 0.307567805 0.951330125 0.0193177406
vn 0.294636667 0.955105186 0.0310391057
vn 0.637539506 -0.769207776 -0.0431606099
vn 0.908855975 -0.417030692 -0.00813889503
vn 0.951740384 -0.295537382 0.0827515051
vn 0.997492909 -0.0693827197 -0.0139330002
vn 0.385320097 -0.464648008 0.797264576
vn 0.679137707 -0.582884908 0.446113586
vn -0.473497897 -0.133201793 0.870664716
vn 0.519562185 -0.241060093 0.819722593
vn -0.493872106 -0.447604507 0.74548012
vn -0.772985518 -0.512459517 0.3740035
vn 0.940506101 -0.0189899802 0.339245796
vn -0.295847207 -0.678757012 0.672133505
vn -0.300757498 -0.725433826 0.619104803
vn 0.0851762816 -0.610636115 0.787317276
vn 0.209979624 -0.843514621 0.494360059
vn -0.000264102011 0.000174547997 -1
vn -1.19619999e-05 0.000126157 -1
vn 0.000206488985 -9.33147967e-05 -1
vn -0.00151115598 -0.000127516003 -0.999998927
vn -0.0418170616 0.0360062718 -0.998476326
vn -0.00566589739 0.0223389175 -0.999734402
vn -0.00225353194 0.0195008498 -0.999807298
vn 0.0664653704 -0.0149365598 -0.997676909
vn -0.483084202 0.563184321 0.6704126
vn -0.543240786 0.716981232 0.436838061
vn -0.546589136 0.220154464 0.807943285
vn -0.977003336 0.193185031 0.0902452469
vn 0.560274005 0.680850685 0.47173661
vn 0.173322603 0.552187204 0.815505207
vn 0.0399467312 0.945067823 0.324424386
vn -0.125185698 0.526322007 0.841019511
vn -0.961603999 -0.269405633 0.052330859
vn -0.739741623 -0.670704603 -0.0542013608
vn -0.3073062 0.950521171 0.0455244705
vn -0.222770303 0.974779189 -0.0133779002
vn -0.490398258 -0.870046437 0.0502886176
vn -0.396709532 -0.917845607 -0.0134531781
vn -0.651977718 0.756034493 -0.0577660203
vn -0.874534607 0.479817003 0.0704621598
vn -0.927764297 0.372594804 -0.0206565205
vn -0.954763591 -0.296474904 0.0230021402
vn -8.72595024e-07 -9.4636398e-06 1
vn -3.17070999e-07 0 1
vn -3.17070999e-07 8.62569038e-07 1
vn -4.37507026e-07 0 1
vn 0 0 1
vn 3.97679014e-06 0 1
vn 0 1.98224006e-06 1
vn 0.869113922 0.476842046 0.131388322
vn 0.681406081 0.729655802 -0.0573435985
vn 0.50903511 -0.859067619 0.0537225008
vn 0.307568431 0.951329947 0.019317681
vn 0.294635504 0.955105484 0.0310393497
vn 0.637540579 -0.769206882 -0.0431603082
vn 0.906841278 -0.421385914 -0.00853621867
vn 0.950645089 -0.29519698 0.0955652371
vn 0.989470601 0.139540285 -0.0384252556
vn 0.369685411 -0.445780993 0.815237403
vn -0.962703407 -0.045843415 0.266646773
vn -0.533569515 -0.150003091 0.832347691
vn 0.622825265 -0.243459225 0.743516266
vn -0.688818514 -0.586853802 0.425595611
vn -0.359551787 -0.840163112 0.406015396
vn 0.0713381022 -0.507247746 0.858842552
vn 0.436164588 -0.898193598 -0.0548516512
vn -0.000343774009 0.000110846995 -1
vn 0.000318552979 -7.99342015e-05 -1
vn -0.204416305 -0.292876214 -0.934043705
vn 0.0970363766 0.0211811624 -0.995055497
vn 0.000665984931 0.000163432982 -0.999999762
vn -0.000112083006 -0.000228790988 -1
vn -3.81541986e-06 -0.000218705987 -1
vn 0.261811912 0.00877064373 -0.965079129
vn -0.316263765 0.775698483 0.546140134
vn -0.380256444 0.44450134 0.81106329
vn -0.746066153 0.516832769 0.41984424
vn -0.503770232 0.202978373 0.839651883
vn 0.54974246 0.507545352 0.663461328
vn 0.172510803 0.549525082 0.817473173
vn 0.1148756 0.899867177 0.420764506
vn -0.137649179 0.58183527 0.801573694
vn -0.961603701 -0.269406557 0.0523310229
vn -0.787653804 -0.614975929 -0.0374995396
vn -0.307307392 0.950520813 0.0455246493
vn -0.489673495 -0.868761599 0.073980622
vn -0.36579746 -0.930626094 -0.0112873893
vn -0.651976526 0.756035507 -0.0577664822
vn -0.874535501 0.479815334 0.07046251
vn -0.927764595 0.372594029 -0.0206567626
vn -0.954763293 -0.296476096 0.0230006501
vn -3.97679014e-06 1.11854001e-06 1
vn -1.04644005e-06 -6.13437976e-07 1
vn 1.79553012e-06 5.72716999e-07 1
vn 3.97679014e-06 5.59268017e-07 1
vn 0.959027588 0.271155894 -0.0821020603
vn 0.970720112 -0.239357501 0.0202587806
vn 0.356231004 -0.934040487 -0.0258430205
vn 0.211439773 -0.975351393 -0.0631098598
vn 0.596965134 0.801998198 0.020778412
vn 0.896606743 -0.434322774 -0.086372979
vn 0.820270896 -0.569371402 0.0545149408
vn 0.0186279397 0.995323181 -0.0947881937
vn 0.3569161 -0.917777002 -0.174058393
vn 0.607686579 0.789546609 -0.0856348798
vn 0.693936825 0.719516158 0.0273536965
vn 0.979259491 0.18859753 -0.0740408376
vn 0.99006629 0.137119815 -0.0310962237
vn -0.997920275 -0.0517308116 0.038459301
vn -0.953038275 -0.262584597 -0.150888607
vn -0.241304263 0.967241406 -0.0788432211
vn -0.202867806 0.97901988 -0.0190987494
vn -0.804307222 -0.591520727 0.0565078184
vn -0.588053048 -0.794790506 -0.150005683
vn -0.293755293 -0.95449698 0.0514141917
vn -0.00951516721 -0.989029229 -0.147413909
vn -0.842104554 0.539281964 -0.00589638809
vn -0.876552105 0.46724841 -0.115479097
vn 0.00762379123 0.00728625013 0.999944389
vn 0.00305455853 0.00911283307 0.999953806
vn 0.0108929798 0.0022627709 0.99993819
vn 0.00830209162 0.0076990719 0.999935925
vn 0.0072979331 -0.00612336304 0.9999547
vn 0.00698232604 -0.00644028094 0.999954879
vn -0.0141774984 0.00727975229 0.999872983
vn 0.00841027405 0.0194948297 0.999774575
vn -0.0147984577 -0.00820416119 0.999856889
vn -0.00842422154 0.00715023186 0.999939024
vn -0.00676321797 -0.00578761054 0.999960363
vn -0.0099268537 -0.00895661023 0.999910593
vn 0.999624014 0.0268735196 -0.00545471907
vn 0.999689519 0.0215856992 0.0124460999
vn 0.999940813 0.0100483196 0.00418728497
vn 0.999720097 -0.00617730524 0.0228391774
vn 0.99983561 0.000458243914 0.0181274377
vn -0.999830186 0.0181541406 0.00317799998
vn -0.999724507 0.0129411779 0.0195820276
vn -0.999752879 -0.00470101787 0.0217266604
vn -0.999852896 0.00188249326 0.0170549117
vn -0.99990958 0.0027504561 0.0131687503
vn -0.575112581 0.00649309205 0.818048596
vn -0.575048804 0.00652599288 0.818093121
vn -0.574947774 -0.0072345729 0.818158209
vn -0.575912654 -0.00673520425 0.817483485
vn 0.575048923 0.00652599195 0.818093002
vn 0.575112581 0.00649315212 0.818048596
vn 0.576083302 -0.00673419191 0.817363322
vn 0.574819446 -0.00738704111 0.818246901
vn -0.00246959901 -0.99982059 0.01878017
vn -0.00760221295 -0.999719501 0.0224325582
vn 0.00744098285 -0.999724805 0.022247009
vn 0.00275081326 -0.999817491 0.0189074222
vn -8.40573023e-07 -0.99990648 0.01367795
vn -0.00798427965 0.999940395 0.00744986488
vn -0.02916109 0.99933368 0.0219537001
vn -0.0411831066 0.99890238 -0.0223145373
vn 0.0113838287 0.999733388 0.0200881884
vn 0.0116265994 0.99974519 0.0193506386
vn -0.0397980213 -0.0284919105 -0.998801529
vn -0.0375021584 -0.0282942597 -0.998896003
vn 0.0361706614 1.13910994e-06 -0.99934572
vn 0.0191501323 0.0333996452 -0.999258697
vn -0.0110441996 0.0171715599 -0.999791622
vn 0.000213537001 -0.0562993214 -0.99841398
vn -0.0190549418 0.0220790524 -0.999574721
vn 0.0557491034 -0.000119816978 -0.998444796
vn 0.0455535613 -0.00192207005 -0.998960078
vn 4.14316928e-05 -0.0572898239 -0.998357594
vn -0.000392215996 -0.054337021 -0.99852258
vn -0.0549787208 -0.000174393994 -0.998487592
vn -0.0453259274 -0.00187623478 -0.998970509
vn -0.0321534202 0.00870031118 -0.999445081
vn 0.0442033373 0.039099507 -0.998257101
vn 0.0135666123 0.0173804723 -0.999756992
vn -0.0293136798 0.002813339 -0.999566317
vn -0.000840755878 0.0269285366 -0.999637008
vn 0.0285716597 0.0200588107 -0.999390483
vn -0.0197553001 -0.0575842187 -0.998145223
vn 0.0496041775 0.020363152 -0.998561442
vn -0.0198029801 -0.0360252783 -0.999154687
vn 0.039879851 0.00775718596 -0.999174416
vn -0.000157561968 0.0292950161 -0.999570787
vn -0.0373464189 9.92345958e-05 -0.999302387
vn 0.0489935726 0.000278483989 -0.998799086
vn 0.00121730508 -0.0541577972 -0.998531699
vn 0.0168502294 -0.0427837297 -0.998942316
vn 0.0172097608 -0.0408996902 -0.999015093
vn 0.0420977995 -0.0155417304 -0.998992682
vn 0.000135016991 0.0306375008 -0.999530613
vn -0.000256051979 -0.00121521903 -0.999999225
vn 0.00125706103 -2.30648984e-05 -0.999999225
vn 0.0352970287 -0.0167952105 -0.999235809
vn -0.0364779793 0.0414572917 -0.998474181
vn 0.0380930267 -0.0431459472 -0.998342276
vn -8.39924978e-05 -0.0561067984 -0.998424828
vn -0.00136601902 0.000284487993 -0.999999106
vn -0.0320746787 0.0223150793 -0.999236405
vn 0.0318256617 0.00116383994 -0.999492824
vn -0.0195339303 0.0464856587 -0.998727977
vn -0.0483640991 0.0179045703 -0.998669326
vn 0.00270122173 0.0233844481 -0.999722898
vn -0.00815474801 0.0377218053 -0.999255002
vn 0.00134640886 0.00144356384 -0.999998093
vn 0.000285218994 -0.00144058396 -0.999998987
vn -0.00042665092 0.000707990897 -0.999999702
vn -0.00158899976 0.00681984285 -0.999975502
vn -0.0487028882 0.00751078082 -0.998785079
vn 0.000278449006 0.049545221 -0.998771906
vn -0.00129699695 0.000120694989 -0.999999225
vn -0.033497151 -0.00267630792 -0.999435306
vn 0.00932854414 0.0260187294 -0.999617994
vn 0.0165991709 0.0456550717 -0.998819411
vn 0.797173619 0.603737473 0.00392836286
vn 0.837168813 0.546387076 0.0246909205
vn 0.390781909 0.920166671 0.02414345
vn 0.349192977 0.936945498 0.0140520884
vn -0.620773613 0.783570528 0.0256396495
vn -0.542500973 0.840054512 -0.00106626702
vn -0.911730289 0.410471648 0.0161603615
vn -0.911625504 0.410706341 0.0160971172
vn -0.999793172 -0.000335866003 -0.0203338191
vn -0.99978441 -0.000837823958 -0.02074885
vn 0.0121404501 -0.999516487 -0.0286275707
vn -0.00450783921 -0.99975878 -0.0214967709
vn 0.339867681 -0.940122902 -0.0256704558
vn 0.408672631 -0.912579894 -0.0135845477
vn 0.690182686 -0.722570777 -0.0392345116
vn 0.850401521 -0.526130557 0.00202280213
vn 0.935143888 -0.352767259 -0.0325748846
vn 0.999744892 0.000867362949 -0.0225722697
vn 0.999773383 0.00566017535 -0.0205199085
vn -2.96536946e-05 0.999782383 -0.0208617374
vn -0.000634518918 0.999771595 -0.021360809
vn 0.00685536722 0.000632378913 -0.999976277
vn 4.84183001e-05 0.00359564996 -0.999993622
vn -0.00248259283 -0.000932054885 -0.999996483
vn -0.00299870898 8.29423007e-05 -0.99999553
vn 1.54639019e-05 0.999771297 -0.0213882327
vn -0.000139133015 0.999768496 -0.0215173922
vn -0.999745429 0.00202971604 -0.0224736296
vn -0.999768674 0.00707816985 -0.0203103404
vn -0.881198287 -0.471345633 -0.036370568
vn -0.900514543 -0.43419075 -0.0234986544
vn -0.398471206 -0.916793108 -0.0266659204
vn -0.434421152 -0.900559604 -0.0164581519
vn 0.00190985203 -0.999776721 -0.0210469905
vn 0.00309443404 -0.999784172 -0.0205426197
vn 0.9997859 -0.000141351993 -0.02069485
vn 0.999798119 0.000595310936 -0.0200858098
vn 0.000138179021 0.00530898524 -0.999985993
vn 0.00539338496 5.00561982e-05 -0.999985516
vn -0.0104329502 5.47132004e-05 -0.999945581
vn 0.000211251987 -0.0104120299 -0.999945819
vn 0.656526327 -0.753575981 -0.0331108458
vn 0.607479215 -0.794246793 -0.0118740182
vn 0.998974979 -0.0422977768 -0.0161190573
vn 0.998705983 -0.0471588299 -0.0190396309
vn 0.00450664712 0.999758184 -0.0215234701
vn -0.0120891901 0.999516785 -0.0286389496
vn -0.339713275 0.940177083 -0.025726486
vn -0.408498108 0.912657201 -0.0136455204
vn -0.690183222 0.722565591 -0.0393214785
vn -0.850530207 0.525922716 0.00196409202
vn -0.935143173 0.352768093 -0.0325869285
vn -0.999771476 -0.00576037122 -0.0205901805
vn -0.999743581 -0.00101613905 -0.0226224009
vn 0.0238315407 -0.999379396 -0.0259416606
vn 0.0140594197 -0.999681473 -0.0209603906
vn 0.00309455348 0.00259321928 -0.999991894
vn 0.00191771903 0.00179898704 -0.999996603
vn 0.000478275993 -0.00118309201 -0.999999225
vn -0.0055500255 -0.00487685157 -0.999972701
vn -0.00253677298 -0.000884467969 -0.999996424
vn -0.913991392 -0.403326809 -0.0441290103
vn -0.544256687 -0.838037074 -0.0384522006
vn -0.708481789 -0.705691636 0.00727433013
vn -0.0296927001 -0.999355614 -0.0201682393
vn -0.0158138778 -0.999797702 -0.0124313785
vn 0.999770999 -0.00445789052 -0.020933561
vn 0.99949801 0.0135471802 -0.0286397897
vn 0.9401232 0.339864701 -0.0257008001
vn 0.912656486 0.408499509 -0.0136471298
vn 0.722560346 0.690188766 -0.0393205173
vn 0.525921822 0.850530684 0.00196558191
vn 0.35291329 0.935089529 -0.0325565897
vn -0.00204324676 0.999742985 -0.0225805584
vn -0.00565886404 0.999762893 -0.0210299399
vn -0.99995321 -0.00609558821 -0.00752151012
vn -0.999379218 -0.0288963299 -0.0201566201
vn 0.00125628687 -0.00280523277 -0.999995291
vn 0.00151520921 -0.00313121057 -0.99999404
vn -0.00487017585 0.00554901315 -0.99997282
vn -0.000841709028 0.001997113 -0.999997675
vn -0.00750136282 0.0111030303 -0.999910295
vn 0.0106598688 -0.00616138987 -0.999924183
vn 0.00229132106 0.00660842611 -0.999975622
vn 0.00793754868 0.00320070842 -0.999963403
vn -0.00215208507 -0.0130711095 -0.999912322
vn 0.00829744339 0.00351047493 -0.999959409
vn -0.00501155807 -0.0120766703 -0.999914527
vn 0.00306099607 0.00732827093 -0.999968529
vn 0.0108081102 -0.0116635496 -0.999873579
vn -0.0151327802 0.00651580002 -0.99986428
vn 0.0114302002 -0.00684815599 -0.999911308
vn 0.0217902604 -0.0132188201 -0.999675214
vn 0.00488477852 -0.00934493449 -0.999944389
vn -0.00396412611 -0.0105619999 -0.999936402
vn 0.0113204103 -0.0326870605 -0.99940151
vn -0.00926429033 0.0159643199 -0.99982971
vn -0.0349425003 -0.00468134787 -0.999378383
vn 0.0182105806 0.000355365977 -0.99983412
vn 0.000426146988 -0.01367837 -0.999906421
vn 0.974331975 0.223453104 -0.0273106005
vn 0.955782592 0.273799896 -0.107300401
vn 0.333088189 -0.937836707 0.097543411
vn 0.519587159 0.854227006 0.0180410072
vn 0.607735515 -0.778322995 -0.157704979
vn 0.45442301 0.886476517 -0.0875167176
vn 0.913050473 -0.406921804 0.0274526402
vn 0.899229407 -0.43694073 -0.0216630585
vn -0.731648505 0.667352676 -0.139035597
vn 0.0204103496 -0.99670428 0.0785117075
vn -0.706231058 0.70213753 -0.0907776803
vn -0.348876297 -0.926957905 -0.137965202
vn -0.109901898 0.993412197 0.0324633084
vn -0.697078586 -0.712942123 0.076125443
vn -0.920227706 -0.325641274 -0.217114463
vn -0.995042205 0.0280889794 0.0954044983
vn -0.959026635 -0.271159232 -0.0821020678
vn -0.970719516 0.239360094 0.0202585999
vn -0.356237799 0.934037924 -0.0258426592
vn -0.211440295 0.975351393 -0.0631095096
vn -0.596960723 -0.802001417 0.0207788907
vn 0.247483298 0.0520803295 -0.967491508
vn -0.221732304 0.210995197 -0.952006221
vn 0.00218814588 0.189496368 -0.981878996
vn 0.036187049 -0.0946350023 -0.994854212
vn -0.0397046208 -0.0531792007 -0.997795403
vn 0.149331897 -0.0380372405 -0.988055229
vn 0.0573754907 -0.0263730809 -0.998004317
vn 0.0395234786 -0.0993475914 -0.994267583
vn 0.0676362514 0.0810929537 -0.994409084
vn 0.0516392514 0.069212608 -0.996264577
vn -0.54206121 -0.195522293 -0.817276418
vn -0.0531696528 -0.142885685 -0.988309979
vn -0.0429643318 0.0118187601 -0.999006689
vn -0.0303748809 0.0753484294 -0.996694624
vn 0.00027508699 -0.00020069399 -1
vn -0.000271443976 0.000127207997 -1
vn -0.00652080588 0.575941026 0.817465186
vn -0.00835239794 0.572390079 0.819939017
vn -0.00772470096 -0.572747648 0.819695354
vn -0.00652670814 -0.575049579 0.818092525
vn 0.00760996295 -0.574327707 0.818590105
vn 0.00705206301 -0.575400472 0.81784147
vn 0.00704735518 0.576120377 0.817334473
vn 0.00812250283 0.574041009 0.818786323

# Mesh 'Part__Feature001_006-mesh' with 362 faces
g Part__Feature001_006-mesh
usemtl Part__Feature001_006
f  1//1 2//1 3//1
f  4//2 2//2 1//2
f  4//3 5//3 2//3
f  5//4 6//4 2//4
f  7//5 2//5 6//5
f  8//6 9//6 10//6
f  8//7 11//7 9//7
f  12//8 13//8 14//8
f  12//9 15//9 13//9
f  16//10 17//10 18//10
f  19//11 20//11 17//11
f  21//12 22//12 23//12
f  23//13 22//13 24//13
f  24//14 22//14 14//14
f  21//15 25//15 22//15
f  14//16 8//16 20//16
f  24//17 14//17 20//17
f  20//18 26//18 17//18
f  8//19 26//19 20//19
f  8//20 27//20 26//20
f  26//21 28//21 17//21
f  17//22 28//22 18//22
f  26//23 29//23 28//23
f  30//24 31//24 32//24
f  30//25 33//25 31//25
f  31//26 33//26 34//26
f  33//27 19//27 34//27
f  35//28 36//28 37//28
f  37//29 36//29 38//29
f  31//30 34//30 37//30
f  34//31 35//31 37//31
f  39//32 40//32 41//32
f  38//33 42//33 40//33
f  36//34 42//34 38//34
f  16//35 18//35 42//35
f  18//36 41//36 40//36
f  18//37 40//37 42//37
f  43//38 44//38 45//38
f  44//39 46//39 47//39
f  48//40 46//40 44//40
f  28//41 29//41 48//41
f  43//42 28//42 44//42
f  44//43 28//43 48//43
f  49//44 47//44 46//44
f  49//45 50//45 47//45
f  18//46 43//46 41//46
f  18//47 28//47 43//47
f  51//48 23//48 52//48
f  23//49 24//49 52//49
f  25//50 21//50 53//50
f  53//51 21//51 54//51
f  55//52 11//52 56//52
f  43//53 56//53 57//53
f  43//54 57//54 41//54
f  57//55 39//55 41//55
f  45//56 56//56 43//56
f  58//57 32//57 57//57
f  59//58 52//58 60//58
f  59//59 51//59 52//59
f  59//60 54//60 51//60
f  53//61 54//61 59//61
f  60//62 52//62 58//62
f  11//63 60//63 58//63
f  56//64 58//64 57//64
f  56//65 11//65 58//65
f  45//66 61//66 56//66
f  62//67 61//67 45//67
f  44//68 62//68 45//68
f  63//69 64//69 62//69
f  62//70 65//70 61//70
f  64//71 65//71 62//71
f  47//72 63//72 44//72
f  44//73 63//73 62//73
f  65//74 56//74 61//74
f  65//75 55//75 56//75
f  66//76 40//76 39//76
f  67//77 39//77 57//77
f  67//78 66//78 39//78
f  67//79 31//79 66//79
f  31//80 68//80 66//80
f  32//81 67//81 57//81
f  32//82 31//82 67//82
f  68//83 38//83 66//83
f  66//84 38//84 40//84
f  29//85 26//85 69//85
f  29//86 70//86 48//86
f  29//87 69//87 70//87
f  69//88 71//88 70//88
f  71//89 72//89 70//89
f  72//90 73//90 70//90
f  27//91 71//91 69//91
f  27//92 69//92 26//92
f  73//93 46//93 48//93
f  73//94 48//94 70//94
f  16//95 42//95 74//95
f  75//96 74//96 76//96
f  75//97 16//97 74//97
f  17//98 16//98 75//98
f  74//99 35//99 76//99
f  35//100 34//100 76//100
f  76//101 34//101 75//101
f  36//102 35//102 74//102
f  36//103 74//103 42//103
f  75//104 19//104 17//104
f  34//105 19//105 75//105
f  52//106 24//106 30//106
f  24//107 33//107 30//107
f  8//108 14//108 11//108
f  11//109 14//109 13//109
f  77//110 78//110 25//110
f  53//111 77//111 25//111
f  54//112 21//112 23//112
f  51//113 54//113 23//113
f  71//114 27//114 79//114
f  71//115 79//115 72//115
f  79//116 49//116 72//116
f  72//117 49//117 73//117
f  46//118 73//118 49//118
f  10//119 27//119 8//119
f  78//120 12//120 22//120
f  12//121 14//121 22//121
f  25//122 78//122 22//122
f  47//123 50//123 63//123
f  63//124 50//124 64//124
f  50//125 80//125 64//125
f  64//126 80//126 65//126
f  80//127 55//127 65//127
f  24//128 20//128 33//128
f  11//129 55//129 9//129
f  19//130 33//130 20//130
f  13//131 60//131 11//131
f  15//132 60//132 13//132
f  59//133 15//133 77//133
f  59//134 60//134 15//134
f  77//135 53//135 59//135
f  30//136 58//136 52//136
f  32//137 58//137 30//137
f  37//138 38//138 68//138
f  31//139 37//139 68//139
f  79//140 81//140 49//140
f  79//141 27//141 81//141
f  82//142 83//142 84//142
f  83//143 85//143 84//143
f  82//144 86//144 83//144
f  87//145 86//145 82//145
f  88//146 89//146 90//146
f  91//147 89//147 88//147
f  92//148 89//148 91//148
f  86//149 87//149 92//149
f  92//150 87//150 89//150
f  92//151 91//151 93//151
f  88//152 94//152 91//152
f  95//153 94//153 88//153
f  96//154 6//154 97//154
f  97//155 6//155 95//155
f  6//156 5//156 95//156
f  96//157 7//157 6//157
f  95//158 5//158 98//158
f  96//159 99//159 7//159
f  99//160 100//160 7//160
f  5//161 4//161 98//161
f  4//162 1//162 98//162
f  99//163 101//163 100//163
f  98//164 1//164 102//164
f  1//165 103//165 102//165
f  99//166 104//166 101//166
f  3//167 103//167 1//167
f  105//168 106//168 3//168
f  107//169 106//169 105//169
f  3//170 106//170 103//170
f  104//171 106//171 107//171
f  99//172 106//172 104//172
f  99//173 108//173 106//173
f  109//174 108//174 99//174
f  110//175 111//175 109//175
f  112//176 111//176 110//176
f  78//177 77//177 110//177
f  77//178 112//178 110//178
f  15//179 112//179 77//179
f  110//180 12//180 78//180
f  84//181 85//181 113//181
f  85//182 114//182 113//182
f  55//183 80//183 115//183
f  115//184 80//184 50//184
f  15//185 114//185 85//185
f  15//186 85//186 116//186
f  9//187 115//187 114//187
f  9//188 114//188 15//188
f  113//189 12//189 84//189
f  84//190 12//190 117//190
f  81//191 10//191 113//191
f  113//192 10//192 12//192
f  117//193 118//193 84//193
f  117//194 109//194 118//194
f  119//195 109//195 120//195
f  119//196 118//196 109//196
f  120//197 96//197 121//197
f  120//198 121//198 119//198
f  122//199 123//199 124//199
f  103//200 123//200 122//200
f  111//201 123//201 108//201
f  125//202 124//202 111//202
f  111//203 124//203 123//203
f  125//204 116//204 85//204
f  111//205 116//205 125//205
f  9//206 12//206 10//206
f  15//207 12//207 9//207
f  115//208 50//208 114//208
f  49//209 113//209 50//209
f  50//210 113//210 114//210
f  49//211 81//211 113//211
f  95//212 88//212 90//212
f  97//213 95//213 90//213
f  126//214 97//214 90//214
f  126//215 90//215 121//215
f  96//216 126//216 121//216
f  103//217 122//217 127//217
f  102//218 103//218 127//218
f  102//219 127//219 93//219
f  94//220 102//220 93//220
f  94//221 93//221 91//221
f  106//222 108//222 123//222
f  111//223 112//223 116//223
f  103//224 106//224 123//224
f  102//225 94//225 98//225
f  94//226 95//226 98//226
f  126//227 96//227 97//227
f  112//228 15//228 116//228
f  99//229 96//229 120//229
f  9//230 55//230 115//230
f  109//231 99//231 120//231
f  110//232 109//232 117//232
f  85//233 83//233 125//233
f  117//234 12//234 110//234
f  125//235 86//235 124//235
f  83//236 86//236 125//236
f  10//237 81//237 27//237
f  86//238 92//238 122//238
f  86//239 122//239 124//239
f  127//240 122//240 92//240
f  127//241 92//241 93//241
f  121//242 90//242 89//242
f  89//243 87//243 119//243
f  89//244 119//244 121//244
f  82//245 84//245 118//245
f  87//246 118//246 119//246
f  87//247 82//247 118//247
f  3//248 2//248 105//248
f  107//249 105//249 2//249
f  100//250 2//250 7//250
f  100//251 101//251 2//251
f  101//252 104//252 2//252
f  104//253 107//253 2//253
f  108//254 109//254 111//254
f  128//255 129//255 130//255
f  130//256 129//256 131//256
f  132//257 133//257 134//257
f  133//258 135//258 134//258
f  129//259 136//259 131//259
f  134//260 135//260 137//260
f  131//261 138//261 139//261
f  136//262 138//262 131//262
f  135//263 140//263 137//263
f  140//264 141//264 137//264
f  137//265 141//265 130//265
f  141//266 128//266 130//266
f  135//267 142//267 140//267
f  142//268 143//268 140//268
f  144//269 145//269 146//269
f  140//270 143//270 141//270
f  146//271 147//271 148//271
f  145//272 147//272 146//272
f  143//273 128//273 141//273
f  148//274 147//274 133//274
f  147//275 149//275 133//275
f  133//276 149//276 135//276
f  149//277 142//277 135//277
f  150//278 147//278 151//278
f  151//279 147//279 152//279
f  149//280 147//280 150//280
f  152//281 147//281 145//281
f  143//282 142//282 128//282
f  142//283 149//283 128//283
f  128//284 149//284 129//284
f  129//285 149//285 150//285
f  153//286 152//286 154//286
f  151//287 152//287 153//287
f  154//288 152//288 144//288
f  152//289 145//289 144//289
f  129//290 150//290 136//290
f  136//291 150//291 138//291
f  150//292 151//292 138//292
f  138//293 151//293 153//293
f  144//294 146//294 155//294
f  146//295 148//295 155//295
f  139//296 153//296 156//296
f  138//297 153//297 139//297
f  155//298 148//298 132//298
f  148//299 133//299 132//299
f  153//300 154//300 156//300
f  156//301 154//301 157//301
f  154//302 144//302 157//302
f  157//303 144//303 155//303
f  155//304 132//304 134//304
f  155//304 134//304 137//305
f  155//306 137//305 130//306
f  156//307 155//306 130//306
f  156//307 130//306 131//308
f  156//307 157//309 155//306
f  156//307 131//308 139//310
f  158//311 159//311 160//311
f  161//257 162//257 163//257
f  162//258 164//258 163//258
f  159//312 165//312 160//312
f  163//313 164//313 166//313
f  160//314 167//314 168//314
f  165//315 167//315 160//315
f  164//316 169//316 166//316
f  169//317 170//317 166//317
f  166//318 170//318 158//318
f  170//319 159//319 158//319
f  164//320 171//320 169//320
f  172//321 173//321 174//321
f  174//322 173//322 175//322
f  169//323 171//323 170//323
f  173//324 176//324 175//324
f  176//325 177//325 162//325
f  162//326 177//326 164//326
f  177//327 171//327 164//327
f  178//328 173//328 172//328
f  177//329 173//329 178//329
f  177//330 176//330 173//330
f  159//331 171//331 179//331
f  179//332 171//332 180//332
f  180//333 177//333 178//333
f  171//334 177//334 180//334
f  170//335 171//335 159//335
f  180//336 178//336 181//336
f  181//337 178//337 182//337
f  178//338 172//338 182//338
f  182//339 172//339 174//339
f  159//340 179//340 165//340
f  165//341 179//341 167//341
f  179//342 180//342 167//342
f  167//343 180//343 181//343
f  174//344 175//344 183//344
f  175//345 176//345 183//345
f  168//346 181//346 184//346
f  167//297 181//297 168//297
f  183//347 176//347 161//347
f  176//348 162//348 161//348
f  181//349 182//349 184//349
f  184//350 182//350 185//350
f  182//351 174//351 185//351
f  185//352 174//352 183//352
f  160//353 166//353 158//353
f  184//354 161//354 163//354
f  184//354 183//355 161//354
f  184//354 185//356 183//355
f  184//354 163//354 168//308
f  168//308 163//354 166//353
f  168//308 166//353 160//353

# Mesh 'Part__Feature_007-mesh' with 262 faces
g Part__Feature_007-mesh
usemtl Part__Feature_007
f  186//357 187//357 188//357
f  187//358 189//358 188//358
f  189//359 190//359 188//359
f  188//360 190//360 191//360
f  192//361 187//361 186//361
f  193//362 194//362 195//362
f  194//363 196//363 195//363
f  197//364 198//364 199//364
f  195//365 196//365 200//365
f  199//366 198//366 201//366
f  198//367 202//367 201//367
f  201//368 202//368 193//368
f  202//369 194//369 193//369
f  203//370 204//370 205//370
f  203//371 205//371 206//371
f  207//372 208//372 209//372
f  207//373 210//373 208//373
f  211//374 203//374 206//374
f  211//375 206//375 212//375
f  213//376 211//376 212//376
f  213//377 212//377 214//377
f  204//378 207//378 209//378
f  204//379 209//379 205//379
f  215//380 216//380 217//380
f  215//381 218//381 216//381
f  219//382 218//382 215//382
f  220//383 219//383 215//383
f  221//384 222//384 223//384
f  221//385 223//385 224//385
f  225//386 226//386 227//386
f  225//387 227//387 228//387
f  225//388 228//388 229//388
f  225//389 229//389 230//389
f  231//390 232//390 233//390
f  231//391 233//391 234//391
f  235//392 219//392 220//392
f  235//393 236//393 219//393
f  237//394 236//394 235//394
f  222//395 237//395 235//395
f  221//396 237//396 222//396
f  238//397 230//397 229//397
f  239//398 238//398 229//398
f  240//399 233//399 238//399
f  240//400 234//400 233//400
f  240//401 238//401 239//401
f  215//402 217//402 241//402
f  242//403 215//403 241//403
f  243//404 224//404 223//404
f  243//405 223//405 242//405
f  225//406 242//406 241//406
f  225//407 241//407 226//407
f  243//408 242//408 232//408
f  231//409 243//409 232//409
f  240//410 231//410 234//410
f  243//411 231//411 240//411
f  237//412 224//412 243//412
f  237//413 221//413 224//413
f  237//414 243//414 240//414
f  241//415 244//415 245//415
f  241//416 245//416 227//416
f  241//417 227//417 226//417
f  216//418 241//418 217//418
f  216//419 244//419 241//419
f  203//420 246//420 247//420
f  203//421 211//421 246//421
f  236//422 248//422 249//422
f  250//423 251//423 210//423
f  245//424 252//424 253//424
f  254//425 237//425 255//425
f  245//426 256//426 252//426
f  248//427 237//427 254//427
f  236//428 237//428 248//428
f  237//429 240//429 255//429
f  255//430 240//430 257//430
f  258//431 240//431 259//431
f  259//432 240//432 239//432
f  253//433 252//433 239//433
f  250//434 260//434 251//434
f  261//435 262//435 263//435
f  252//436 264//436 239//436
f  245//437 265//437 256//437
f  261//438 236//438 262//438
f  213//439 246//439 211//439
f  260//440 266//440 251//440
f  213//441 267//441 246//441
f  251//442 266//442 268//442
f  245//443 269//443 265//443
f  264//444 259//444 239//444
f  266//445 270//445 268//445
f  213//446 271//446 267//446
f  272//447 273//447 213//447
f  213//448 273//448 271//448
f  270//449 274//449 268//449
f  245//450 244//450 269//450
f  269//451 275//451 265//451
f  264//452 276//452 259//452
f  268//453 274//453 272//453
f  277//454 207//454 278//454
f  272//455 274//455 273//455
f  258//456 257//456 240//456
f  266//457 249//457 270//457
f  207//458 204//458 278//458
f  236//459 249//459 262//459
f  275//460 207//460 277//460
f  278//461 204//461 276//461
f  244//462 263//462 269//462
f  275//463 210//463 207//463
f  271//464 255//464 267//464
f  269//465 279//465 275//465
f  267//466 255//466 257//466
f  276//467 247//467 259//467
f  276//468 204//468 247//468
f  279//469 210//469 275//469
f  249//470 248//470 270//470
f  204//471 203//471 247//471
f  261//472 263//472 244//472
f  250//473 210//473 279//473
f  236//474 261//474 218//474
f  236//475 218//475 219//475
f  261//476 216//476 218//476
f  261//477 244//477 216//477
f  253//478 228//478 227//478
f  245//479 253//479 227//479
f  239//480 229//480 228//480
f  253//481 239//481 228//481
f  248//482 280//482 281//482
f  254//483 280//483 248//483
f  270//484 281//484 282//484
f  248//485 281//485 270//485
f  283//486 271//486 273//486
f  284//487 283//487 273//487
f  284//488 273//488 274//488
f  282//489 284//489 274//489
f  282//490 274//490 270//490
f  285//491 271//491 283//491
f  285//492 255//492 271//492
f  280//493 254//493 285//493
f  285//494 254//494 255//494
f  284//495 285//495 283//495
f  280//496 285//496 284//496
f  281//497 284//497 282//497
f  281//498 280//498 284//498
f  286//499 257//499 258//499
f  287//500 257//500 286//500
f  267//501 287//501 288//501
f  257//502 287//502 267//502
f  289//503 247//503 246//503
f  289//504 290//504 247//504
f  288//505 246//505 267//505
f  288//506 289//506 246//506
f  247//507 291//507 259//507
f  247//508 290//508 291//508
f  286//509 259//509 291//509
f  286//510 258//510 259//510
f  289//511 287//511 286//511
f  289//512 286//512 291//512
f  288//513 287//513 289//513
f  290//514 289//514 291//514
f  292//515 252//515 293//515
f  252//516 256//516 293//516
f  294//517 252//517 292//517
f  294//518 264//518 252//518
f  294//519 276//519 264//519
f  295//520 276//520 294//520
f  296//521 275//521 277//521
f  297//522 296//522 277//522
f  297//523 277//523 278//523
f  295//524 297//524 278//524
f  295//525 278//525 276//525
f  275//526 298//526 265//526
f  275//527 296//527 298//527
f  256//528 298//528 293//528
f  265//529 298//529 256//529
f  295//530 294//530 292//530
f  297//531 295//531 292//531
f  293//532 297//532 292//532
f  293//533 296//533 297//533
f  298//534 296//534 293//534
f  299//535 262//535 300//535
f  301//536 263//536 299//536
f  263//537 262//537 299//537
f  263//538 302//538 269//538
f  263//539 301//539 302//539
f  302//540 279//540 269//540
f  303//541 279//541 302//541
f  304//542 266//542 260//542
f  305//543 304//543 260//543
f  305//544 260//544 250//544
f  303//545 305//545 250//545
f  303//546 250//546 279//546
f  306//547 266//547 304//547
f  306//548 249//548 266//548
f  262//549 306//549 300//549
f  249//550 306//550 262//550
f  301//551 305//551 303//551
f  301//552 303//552 302//552
f  300//553 304//553 305//553
f  300//554 306//554 304//554
f  299//555 300//555 305//555
f  299//556 305//556 301//556
f  198//557 206//557 202//557
f  202//558 206//558 205//558
f  198//559 212//559 206//559
f  194//560 202//560 205//560
f  198//561 214//561 212//561
f  307//562 214//562 198//562
f  194//563 205//563 209//563
f  308//564 214//564 307//564
f  309//565 214//565 308//565
f  196//566 194//566 209//566
f  310//567 309//567 308//567
f  208//568 311//568 196//568
f  208//569 196//569 209//569
f  310//570 308//570 312//570
f  313//571 310//571 312//571
f  208//572 312//572 311//572
f  313//573 312//573 208//573
f  251//574 268//574 310//574
f  251//575 310//575 313//575
f  272//576 213//576 214//576
f  210//577 251//577 313//577
f  272//578 214//578 309//578
f  210//579 313//579 208//579
f  272//580 309//580 310//580
f  268//581 272//581 310//581
f  314//582 308//582 197//582
f  196//583 311//583 200//583
f  308//584 307//584 197//584
f  200//585 311//585 315//585
f  307//586 198//586 197//586
f  311//587 312//587 315//587
f  315//588 312//588 314//588
f  312//589 308//589 314//589
f  191//590 316//590 317//590
f  316//591 318//591 317//591
f  318//592 192//592 317//592
f  317//593 192//593 186//593
f  190//594 316//594 191//594
f  187//595 201//595 193//595
f  318//596 314//596 197//596
f  192//597 197//597 199//597
f  200//598 189//598 195//598
f  315//599 316//599 190//599
f  189//600 187//600 195//600
f  195//601 187//601 193//601
f  200//602 190//602 189//602
f  187//603 199//603 201//603
f  187//604 192//604 199//604
f  315//605 314//605 316//605
f  200//606 315//606 190//606
f  316//607 314//607 318//607
f  318//608 197//608 192//608
f  191//609 317//609 186//609
f  191//610 186//610 188//610
f  232//611 242//611 238//611
f  232//612 238//612 233//612
f  225//613 230//613 238//613
f  242//614 225//614 238//614
f  235//615 220//615 215//615
f  235//616 215//616 242//616
f  235//617 242//617 223//617
f  222//618 235//618 223//618

